<?xml version="1.0" encoding="utf-8"?>
<!-- Generator: Adobe Illustrator 27.1.1, SVG Export Plug-In . SVG Version: 6.00 Build 0)  -->
<svg version="1.1" id="Layer_1" xmlns="http://www.w3.org/2000/svg" xmlns:xlink="http://www.w3.org/1999/xlink" x="0px" y="0px"
	 viewBox="0 0 1000 1000" style="enable-background:new 0 0 1000 1000;" xml:space="preserve">
<style type="text/css">
	.st0{fill:#FFFFFF;}
	.st1{fill:none;stroke:#FF0006;stroke-width:29.9991;stroke-miterlimit:9.9997;}
</style>
<g>
	<g>
		<path class="st0" d="M318.7,537l-11.3-52.3L296,537h-19.5l-20.2-71.9h20.2l11.2,51.5l10.4-51.5h19l10.9,51.8l11.2-51.8h19.6
			L338,537H318.7L318.7,537z"/>
		<path class="st0" d="M367.8,472.9c5-6.3,13.5-9.5,25.6-9.5c7.9,0,14.9,1.6,21,4.7s9.2,9,9.2,17.7v33c0,2.3,0,5,0.1,8.3
			c0.1,2.5,0.5,4.1,1.1,5s1.5,1.6,2.8,2.2v2.8h-20.4c-0.6-1.5-1-2.8-1.2-4.1s-0.4-2.7-0.5-4.3c-2.6,2.8-5.6,5.2-9,7.2
			c-4,2.3-8.6,3.5-13.7,3.5c-6.5,0-11.9-1.9-16.1-5.6s-6.4-9-6.4-15.8c0-8.8,3.4-15.2,10.2-19.2c3.7-2.1,9.2-3.7,16.5-4.6l6.4-0.8
			c3.5-0.4,6-1,7.5-1.6c2.7-1.1,4-2.9,4-5.3c0-2.9-1-5-3.1-6.1s-5-1.7-9-1.7c-4.4,0-7.6,1.1-9.4,3.3c-1.3,1.6-2.2,3.8-2.6,6.6h-18.1
			C362.9,482.1,364.6,477,367.8,472.9L367.8,472.9z M381.8,523.4c1.8,1.5,3.9,2.2,6.5,2.2c4,0,7.8-1.2,11.2-3.6
			c3.4-2.4,5.2-6.7,5.3-13v-7c-1.2,0.8-2.4,1.4-3.6,1.8s-2.9,0.9-5,1.3l-4.2,0.8c-4,0.7-6.8,1.6-8.5,2.6c-2.9,1.7-4.4,4.4-4.4,8
			C379.1,519.7,380,522,381.8,523.4z"/>
		<path class="st0" d="M456.4,549.6c2,1.7,5.4,2.6,10.2,2.6c6.8,0,11.3-2.3,13.6-6.8c1.5-2.9,2.2-7.8,2.2-14.6v-4.6
			c-1.8,3.1-3.7,5.4-5.8,6.9c-3.7,2.9-8.6,4.3-14.6,4.3c-9.2,0-16.6-3.2-22.1-9.7s-8.3-15.3-8.3-26.3s2.7-19.7,8-26.9
			s12.9-10.9,22.6-10.9c3.6,0,6.8,0.5,9.4,1.6c4.6,1.9,8.3,5.4,11.1,10.4v-10.4H501v68.2c0,9.3-1.6,16.3-4.7,21
			c-5.4,8.1-15.6,12.1-30.9,12.1c-9.2,0-16.7-1.8-22.5-5.4c-5.8-3.6-9-9-9.6-16.2h20.4C454.4,547,455.3,548.6,456.4,549.6
			L456.4,549.6z M453.3,512.5c2.5,6.1,7.1,9.1,13.7,9.1c4.4,0,8.1-1.7,11.1-5s4.5-8.6,4.5-15.9c0-6.8-1.4-12-4.3-15.6
			s-6.7-5.3-11.6-5.3c-6.6,0-11.1,3.1-13.6,9.3c-1.3,3.3-2,7.4-2,12.2C451.2,505.5,451.9,509.2,453.3,512.5L453.3,512.5z"/>
	</g>
	
		<ellipse transform="matrix(0.1568 -0.9876 0.9876 0.1568 -69.9942 913.5598)" class="st1" cx="500" cy="497.8" rx="49.2" ry="267.1"/>
	<path class="st0" d="M616.8,473c5-6.3,13.5-9.5,25.6-9.5c7.9,0,14.8,1.6,21,4.7c6.1,3.1,9.2,9,9.2,17.7v33c0,2.3,0,5,0.1,8.3
		c0.1,2.5,0.5,4.1,1.1,5s1.5,1.6,2.8,2.2v2.8h-20.4c-0.6-1.5-1-2.8-1.2-4.1s-0.4-2.7-0.5-4.3c-2.6,2.8-5.6,5.2-9,7.2
		c-4,2.3-8.6,3.5-13.7,3.5c-6.5,0-11.9-1.9-16.1-5.6s-6.4-9-6.4-15.8c0-8.8,3.4-15.2,10.2-19.2c3.7-2.1,9.2-3.7,16.5-4.6l6.4-0.8
		c3.5-0.4,6-1,7.5-1.6c2.7-1.1,4-2.9,4-5.3c0-2.9-1-5-3.1-6.1s-5-1.7-9-1.7c-4.4,0-7.6,1.1-9.4,3.3c-1.3,1.6-2.2,3.8-2.6,6.6h-18.1
		C611.9,482.2,613.6,477,616.8,473L616.8,473z M630.8,523.5c1.8,1.5,3.9,2.2,6.5,2.2c4,0,7.8-1.2,11.2-3.6c3.4-2.4,5.2-6.7,5.3-13
		v-7c-1.2,0.8-2.4,1.4-3.6,1.8s-2.9,0.9-5,1.3L641,506c-4,0.7-6.8,1.6-8.5,2.6c-2.9,1.7-4.3,4.4-4.3,8
		C628.1,519.8,629,522.1,630.8,523.5L630.8,523.5z"/>
	<path class="st0" d="M719,479.1c-6.4,0-10.8,2.7-13.1,8.1c-1.2,2.9-1.8,6.5-1.8,10.9V537h-18.7v-71.7h18.1v10.5
		c2.4-3.7,4.7-6.4,6.9-8c3.9-2.9,8.8-4.4,14.7-4.4c7.4,0,13.5,1.9,18.2,5.8s7.1,10.3,7.1,19.4V537H731v-43.7c0-3.8-0.5-6.7-1.5-8.7
		C727.7,480.9,724.1,479.1,719,479.1L719,479.1z"/>
	<path class="st0" d="M569.1,537.2l-11.3-52.3l-11.4,52.3h-19.5l-20.2-71.9h20.2l11.2,51.5l10.3-51.5h19l10.9,51.8l11.2-51.8h19.6
		l-20.8,71.9L569.1,537.2L569.1,537.2z"/>
</g>
</svg>
