<?xml version="1.0" encoding="utf-8"?>
<!-- Generator: Adobe Illustrator 27.1.1, SVG Export Plug-In . SVG Version: 6.00 Build 0)  -->
<svg version="1.1" id="Layer_1" xmlns="http://www.w3.org/2000/svg" xmlns:xlink="http://www.w3.org/1999/xlink" x="0px" y="0px"
	 viewBox="0 0 1000 1000" style="enable-background:new 0 0 1000 1000;" xml:space="preserve">
<style type="text/css">
	.st0{fill:none;stroke:#FF0006;stroke-width:29.9982;stroke-miterlimit:9.9994;}
	.st1{fill:#FFFFFF;}
	.st2{fill:#FFD84D;}
	.st3{stroke:#FFD84D;stroke-width:10;stroke-miterlimit:10;}
</style>
<g>
	<g>
		<path d="M305.2,556.2l-11.3-52.3l-11.4,52.3H263l-20.2-71.9H263l11.2,51.5l10.4-51.5h19l10.9,51.8l11.2-51.8h19.6l-20.8,71.9
			H305.2L305.2,556.2z"/>
		<path d="M354.3,492.1c5-6.3,13.5-9.5,25.6-9.5c7.9,0,14.9,1.6,21,4.7s9.2,9,9.2,17.7v33c0,2.3,0,5,0.1,8.3c0.1,2.5,0.5,4.1,1.1,5
			s1.5,1.6,2.8,2.2v2.8h-20.4c-0.6-1.5-1-2.8-1.2-4.1s-0.4-2.7-0.5-4.3c-2.6,2.8-5.6,5.2-9,7.2c-4,2.3-8.6,3.5-13.7,3.5
			c-6.5,0-11.9-1.9-16.1-5.6s-6.4-9-6.4-15.8c0-8.8,3.4-15.2,10.2-19.2c3.7-2.1,9.2-3.7,16.5-4.6l6.4-0.8c3.5-0.4,6-1,7.5-1.6
			c2.7-1.1,4-2.9,4-5.3c0-2.9-1-5-3.1-6.1s-5-1.7-9-1.7c-4.4,0-7.6,1.1-9.4,3.3c-1.3,1.6-2.2,3.8-2.6,6.6h-18.1
			C349.4,501.3,351.1,496.2,354.3,492.1L354.3,492.1z M368.3,542.6c1.8,1.5,3.9,2.2,6.5,2.2c4,0,7.8-1.2,11.2-3.6
			c3.4-2.4,5.2-6.7,5.3-13v-7c-1.2,0.8-2.4,1.4-3.6,1.8c-1.2,0.4-2.9,0.9-5,1.3l-4.2,0.8c-4,0.7-6.8,1.6-8.5,2.6
			c-2.9,1.7-4.4,4.4-4.4,8C365.6,538.9,366.5,541.2,368.3,542.6z"/>
		<path d="M442.9,568.8c2,1.7,5.4,2.6,10.2,2.6c6.8,0,11.3-2.3,13.6-6.8c1.5-2.9,2.2-7.8,2.2-14.6v-4.6c-1.8,3.1-3.7,5.4-5.8,6.9
			c-3.7,2.9-8.6,4.3-14.6,4.3c-9.2,0-16.6-3.2-22.1-9.7s-8.3-15.3-8.3-26.3c0-11,2.7-19.7,8-26.9s12.9-10.9,22.6-10.9
			c3.6,0,6.8,0.5,9.4,1.6c4.6,1.9,8.3,5.4,11.1,10.4v-10.4h18.3v68.2c0,9.3-1.6,16.3-4.7,21c-5.4,8.1-15.6,12.1-30.9,12.1
			c-9.2,0-16.7-1.8-22.5-5.4c-5.8-3.6-9-9-9.6-16.2h20.4C440.9,566.2,441.8,567.8,442.9,568.8L442.9,568.8z M439.8,531.7
			c2.5,6.1,7.1,9.1,13.7,9.1c4.4,0,8.1-1.7,11.1-5s4.5-8.6,4.5-15.9c0-6.8-1.4-12-4.3-15.6s-6.7-5.3-11.6-5.3
			c-6.6,0-11.1,3.1-13.6,9.3c-1.3,3.3-2,7.4-2,12.2C437.7,524.7,438.4,528.4,439.8,531.7L439.8,531.7z"/>
	</g>
	
		<ellipse transform="matrix(0.1568 -0.9876 0.9876 0.1568 -100.3991 916.4216)" class="st0" cx="486.5" cy="517" rx="49.2" ry="267.1"/>
	<path d="M603.3,492.2c5-6.3,13.5-9.5,25.6-9.5c7.9,0,14.8,1.6,21,4.7c6.1,3.1,9.2,9,9.2,17.7v33c0,2.3,0,5,0.1,8.3
		c0.1,2.5,0.5,4.1,1.1,5s1.5,1.6,2.8,2.2v2.8h-20.4c-0.6-1.5-1-2.8-1.2-4.1s-0.4-2.7-0.5-4.3c-2.6,2.8-5.6,5.2-9,7.2
		c-4,2.3-8.6,3.5-13.7,3.5c-6.5,0-11.9-1.9-16.1-5.6s-6.4-9-6.4-15.8c0-8.8,3.4-15.2,10.2-19.2c3.7-2.1,9.2-3.7,16.5-4.6l6.4-0.8
		c3.5-0.4,6-1,7.5-1.6c2.7-1.1,4-2.9,4-5.3c0-2.9-1-5-3.1-6.1s-5-1.7-9-1.7c-4.4,0-7.6,1.1-9.4,3.3c-1.3,1.6-2.2,3.8-2.6,6.6h-18.1
		C598.4,501.4,600.1,496.2,603.3,492.2L603.3,492.2z M617.3,542.7c1.8,1.5,3.9,2.2,6.5,2.2c4,0,7.8-1.2,11.2-3.6
		c3.4-2.4,5.2-6.7,5.3-13v-7c-1.2,0.8-2.4,1.4-3.6,1.8c-1.2,0.4-2.9,0.9-5,1.3l-4.2,0.8c-4,0.7-6.8,1.6-8.5,2.6
		c-2.9,1.7-4.3,4.4-4.3,8C614.6,539,615.5,541.3,617.3,542.7L617.3,542.7z"/>
	<path d="M705.5,498.3c-6.4,0-10.8,2.7-13.1,8.1c-1.2,2.9-1.8,6.5-1.8,10.9v38.9h-18.7v-71.7H690V495c2.4-3.7,4.7-6.4,6.9-8
		c3.9-2.9,8.8-4.4,14.7-4.4c7.4,0,13.5,1.9,18.2,5.8s7.1,10.3,7.1,19.4v48.4h-19.4v-43.7c0-3.8-0.5-6.7-1.5-8.7
		C714.2,500.1,710.6,498.3,705.5,498.3L705.5,498.3z"/>
	<path d="M555.6,556.4l-11.3-52.3l-11.4,52.3h-19.5l-20.2-71.9h20.2l11.2,51.5l10.3-51.5h19l10.9,51.8l11.2-51.8h19.6l-20.8,71.9
		L555.6,556.4L555.6,556.4z"/>
</g>
<g>
	<path d="M1580.5,823.4c-45.4,0-90.2,0-135.4,0c-0.1-2-0.2-3.8-0.2-5.6c-0.2-15.8-0.6-31.6-0.7-47.4c0-7.7-2.1-14.6-6.1-21.2
		c-14-23.6-27.9-47.2-41.7-70.9c-6-10.3-1-21.6,10.3-23.9c6.4-1.3,12.5,2.1,16.6,8.5c7.7,12.4,15.2,24.9,23.6,36.9
		c4.7,6.8,10.7,12.8,16.5,18.6c12.7,12.8,28.1,19.5,46.3,20.3c8.8,0.4,17.5,1.9,26.3,2.9c16.8,2,30.7,13.9,34.4,30.3
		C1574,789,1577,806,1580.5,823.4z"/>
	<path d="M1791.6,823.4c-36.2,0-71.7,0-107.8,0c0-9.2-0.7-18.2,0.1-27.1c1.7-17.5-3.6-31.9-15.3-45.1
		c-10.5-11.7-19.6-24.8-29.1-37.3c-4.3-5.7-4.4-12.7-0.5-18.1c3.9-5.4,11.2-8.3,17.2-5.5c3.7,1.7,7.1,4.9,9.5,8.3
		c8.7,12.7,18.2,24.5,30.2,34.3c27,22,56.4,22.1,83.6,0.2c12.3-9.9,22.2-22,30.7-35.2c3.6-5.6,8.4-9.1,15.2-8.4
		c12.5,1.3,18.1,14.7,10.2,25c-10.4,13.8-20.7,27.8-31.9,40.9c-9,10.5-13.1,21.9-12.1,35.6c0.6,8.9,0.1,17.9,0.1,26.9
		C1791.6,819.8,1791.6,821.6,1791.6,823.4z"/>
	<path d="M1791.5,621.2c-36.2,0-71.5,0-107.5,0c-0.1-1.8-0.3-3.6-0.3-5.3c0-11.5-0.1-22.9,0-34.4c0.1-8.3-2.4-15.6-7.6-22.1
		c-12.3-15.7-24.5-31.5-36.7-47.3c-4.2-5.4-4.7-11.3-1.2-17.2c3.3-5.5,8.4-7.9,14.8-7.3c5.6,0.5,9.3,3.9,12.2,8.5
		c8.6,13.4,18.6,25.6,31.1,35.4c12.2,9.5,25.5,16.1,41.4,16.1c13.5,0,25.3-4.9,36.2-12.5c13.3-9.2,23.7-21.2,32.9-34.4
		c1.5-2.2,2.9-4.5,4.5-6.6c5.4-7.3,14.4-8.8,21.6-3.6c6.9,4.9,8.3,14.4,2.9,21.6c-6.8,9-13.8,17.9-20.7,26.8
		c-5.3,6.8-10.5,13.8-15.9,20.5c-5.4,6.6-7.8,14.1-7.7,22.6C1791.6,594.8,1791.5,607.7,1791.5,621.2z"/>
	<path d="M1556.6,621.1c-36.1,0-71.6,0-107.8,0c0-2,0-3.7,0-5.5c0-11.1-0.2-22.3,0.1-33.4c0.2-8.9-2.5-16.5-8-23.5
		c-12.2-15.4-24.1-31-36.1-46.5c-4.2-5.4-4.9-11.3-1.5-17.2c3.3-5.8,8.6-8.2,15.2-7.5c5.6,0.6,9.2,4.1,12.1,8.6
		c8.3,12.9,18,24.8,30,34.5c13.6,11,28.6,18.2,46.7,16.7c16.7-1.4,30.7-9.2,42.1-20.7c9.5-9.6,17.7-20.6,26.1-31.3
		c5-6.4,10.9-9.3,17.5-7.4c11,3.1,14.8,15.3,7.5,24.7c-11.8,15.5-23.7,30.9-35.8,46.1c-5.6,7.1-8.3,14.9-8.2,24c0.2,11,0,22,0,32.9
		C1556.6,617.2,1556.6,618.8,1556.6,621.1z"/>
	<path d="M1509.3,729c-19,0-34.4-15.3-34.3-34.2c0.1-18.7,15.4-33.9,34.1-33.9c19,0,34.4,15.4,34.3,34.2
		C1543.3,713.8,1528,729,1509.3,729z"/>
	<path d="M1737.7,671.8c19,0.1,34.4,15.5,34.1,34.3s-15.5,33.8-34.2,33.8c-18.9,0-34.3-15.7-34.1-34.4
		C1703.6,686.7,1718.9,671.7,1737.7,671.8z"/>
	<path d="M1536.8,503.9c-0.1,18.8-15.3,33.9-34.1,33.8c-19-0.1-34.2-15.4-34.1-34.4c0.1-18.8,15.8-34.1,34.6-33.9
		C1522,469.8,1537,485.1,1536.8,503.9z"/>
	<path d="M1771.2,501.4c0.1,19.1-15,34.1-34.1,34.1c-18.7,0-33.9-15.2-33.9-33.9c-0.1-18.9,15.3-34.2,34.2-34.2
		C1756.1,467.4,1771.2,482.6,1771.2,501.4z"/>
	<path d="M1478.4,424.6c-0.9,1.2-2.2,3.8-4.4,5.2c-5.8,3.8-11.9,7.3-17.9,10.7c-4.7,2.6-9,1.6-11.2-2.4c-2.1-3.8-0.9-7.8,3.5-10.5
		c6.1-3.7,12.2-7.4,18.4-10.8C1472.3,413.9,1478.3,417.3,1478.4,424.6z"/>
	<path d="M1712.6,390.7c1,0.7,3.5,1.8,4.8,3.6c3.9,5.3,7.6,10.9,11,16.5c2.4,3.9,1.4,8.2-2.1,10.5s-7.6,1.6-10.4-2.3
		c-3.8-5.4-7.6-10.9-11-16.5C1701.6,397,1705.2,390.6,1712.6,390.7z"/>
	<path d="M1515.4,438.4c2.6,1.3,4.6,1.9,6,3.1c4.6,4,9.2,8.2,13.6,12.4c3.4,3.3,3.6,7.6,1,10.7c-2.9,3.4-7.2,3.7-11,0.4
		c-4.8-4.1-9.7-8.1-13.8-12.9c-1.7-1.9-2.2-5.9-1.5-8.4C1510.2,441.7,1513.3,440.2,1515.4,438.4z"/>
	<path d="M1405.6,431.1c-2.3-0.5-3.5-0.4-4.2-0.9c-6.1-4.4-12.3-8.6-17.9-13.4c-2.8-2.4-2.5-6.1-0.2-9.1c2.2-2.9,5.6-4.3,8.8-2.3
		c6.1,4,12.2,8.1,17.6,13c1.6,1.4,2,5.7,1.2,8C1410.1,428.6,1407,429.9,1405.6,431.1z"/>
	<path d="M1701.3,657.6c-1.9,2.1-3.3,5.2-5.4,5.8c-2.4,0.7-6.8,0.2-8-1.5c-4.2-5.9-7.8-12.3-10.8-18.9c-0.8-1.7,0.9-5.8,2.7-7.1
		c1.8-1.4,6.1-1.9,7.6-0.7C1694.2,640.8,1697.1,649,1701.3,657.6z"/>
	<path d="M1617.8,598c-1.6-1.3-4.4-2.5-5.3-4.6s-1-5.7,0.3-7.3c4.3-5.2,9.1-10.1,14.2-14.6c2.7-2.5,6.3-2,9.1,0.4
		c2.9,2.5,3.8,6.3,1.6,8.9c-4.6,5.6-10,10.6-15.2,15.6C1621.7,597.3,1620.1,597.3,1617.8,598z"/>
	<path d="M1567.1,450.3c-6.2,0.1-10.4-5.4-8-10c3-5.8,6.7-11.4,10.7-16.7c2.2-3,5.8-3,9-1c3.3,2.1,4.9,5.4,2.9,9
		c-3.1,5.6-6.7,11-10.4,16.3C1570.3,449.3,1568,449.8,1567.1,450.3z"/>
	<path d="M1610.2,653.1c-1.3,2.6-1.8,4.2-2.7,5.5c-3,4.2-6,8.3-9.2,12.3c-3.1,3.8-7.6,4.4-10.9,1.8c-3.3-2.7-3.9-6.7-1.1-10.6
		c3.2-4.5,6.2-9.2,10-13c1.8-1.8,5.8-2.8,8.2-2.1C1606.9,647.7,1608.4,651,1610.2,653.1z"/>
	<path d="M1681.1,454.6c-0.9,1.2-2.2,4-4.3,5.2c-4.9,2.7-10.2,4.8-15.4,6.9c-4,1.5-7.9-0.3-9.4-4.1c-1.6-4-0.4-7.4,3.3-9.3
		c5.3-2.7,10.8-5.1,16.4-7.1C1676.2,444.6,1680.9,448.3,1681.1,454.6z"/>
	<path d="M1610.6,418.6c1.1,0.7,3.5,1.6,5,3.4c3.3,3.9,6.2,8.1,9.1,12.4c2.8,4.2,2.1,8.4-1.6,10.9c-3.4,2.4-7.5,1.7-10.5-2.1
		c-3.2-4-6.2-8.2-9-12.4C1600.1,425.4,1603.2,418.9,1610.6,418.6z"/>
	<path d="M1770.1,422.5c0.3,0,0.9,0,1.6,0.2c3.6,0.9,14.8,15,14.2,18.7c-0.4,2.4-2,5.7-4,6.6c-2.2,1-6.4,0.6-8-1
		c-4.2-4.2-7.8-9.1-10.8-14.1C1760.3,428.3,1764.3,422.5,1770.1,422.5z"/>
</g>
<g>
	<path class="st1" d="M1265.8,1107.4c-36.1,0-71.6,0-107.8,0c0-2,0-3.7,0-5.5c0-11.1-0.2-22.3,0.1-33.4c0.2-8.9-2.5-16.5-8-23.5
		c-12.2-15.4-24.1-31-36.1-46.5c-4.2-5.4-4.9-11.3-1.5-17.2c3.3-5.8,8.6-8.2,15.2-7.5c5.6,0.6,9.2,4.1,12.1,8.6
		c8.3,12.9,18,24.8,30,34.5c13.6,11,28.6,18.2,46.7,16.7c16.7-1.4,30.7-9.2,42.1-20.7c9.5-9.6,17.7-20.6,26.1-31.3
		c5-6.4,10.9-9.3,17.5-7.4c11,3.1,14.8,15.3,7.5,24.7c-11.8,15.5-23.7,30.9-35.8,46.1c-5.6,7.1-8.3,14.9-8.2,24c0.2,11,0,22,0,32.9
		C1265.8,1103.4,1265.8,1105.1,1265.8,1107.4z"/>
	<path class="st1" d="M1246,990.2c-0.1,18.8-15.3,33.9-34.1,33.8c-19-0.1-34.2-15.4-34.1-34.4c0.1-18.8,15.8-34.1,34.6-33.9
		C1231.3,956,1246.2,971.3,1246,990.2z"/>
</g>
<g>
	<path class="st2" d="M892.6,1259c-36.1,0-71.6,0-107.8,0c0-2,0-3.7,0-5.5c0-11.1-0.2-22.3,0.1-33.4c0.2-8.9-2.5-16.5-8-23.5
		c-12.2-15.4-24.1-31-36.1-46.5c-4.2-5.4-4.9-11.3-1.5-17.2c3.3-5.8,8.6-8.2,15.2-7.5c5.6,0.6,9.2,4.1,12.1,8.6
		c8.3,12.9,18,24.8,30,34.5c13.6,11,28.6,18.2,46.7,16.7c16.7-1.4,30.7-9.2,42.1-20.7c9.5-9.6,17.7-20.6,26.1-31.3
		c5-6.4,10.9-9.3,17.5-7.4c11,3.1,14.8,15.3,7.5,24.7c-11.8,15.5-23.7,30.9-35.8,46.1c-5.6,7.1-8.3,14.9-8.2,24c0.2,11,0,22,0,32.9
		C892.6,1255.1,892.6,1256.7,892.6,1259z"/>
	<path class="st2" d="M872.8,1141.8c-0.1,18.8-15.3,33.9-34.1,33.8c-19-0.1-34.2-15.4-34.1-34.4c0.1-18.8,15.8-34.1,34.6-33.9
		C858,1107.6,872.9,1123,872.8,1141.8z"/>
</g>
<g>
	<path d="M1556.6,167.6c-36.1,0-71.6,0-107.8,0c0-2,0-3.7,0-5.5c0-11.1-0.2-22.3,0.1-33.4c0.2-8.9-2.5-16.5-8-23.5
		c-12.2-15.4-24.1-31-36.1-46.5c-4.2-5.4-4.9-11.3-1.5-17.2c3.3-5.8,8.6-8.2,15.2-7.5c5.6,0.6,9.2,4.1,12.1,8.6
		c8.3,12.9,18,24.8,30,34.5c13.6,11,28.6,18.2,46.7,16.7c16.7-1.4,30.7-9.2,42.1-20.7c9.5-9.6,17.7-20.6,26.1-31.3
		c5-6.4,10.9-9.3,17.5-7.4c11,3.1,14.8,15.3,7.5,24.7c-11.8,15.5-23.7,30.9-35.8,46.1c-5.6,7.1-8.3,14.9-8.2,24c0.2,11,0,22,0,32.9
		C1556.6,163.6,1556.6,165.3,1556.6,167.6z"/>
	<path d="M1536.8,50.4c-0.1,18.8-15.3,33.9-34.1,33.8c-19-0.1-34.2-15.4-34.1-34.4c0.1-18.8,15.8-34.1,34.6-33.9
		C1522,16.2,1537,31.5,1536.8,50.4z"/>
</g>
<g>
	<path class="st1" d="M1211.9,318.1c0.3-11.3,8.3-21,19.4-23.2c12.9-2.6,25.6,5.9,28.1,18.8c0.9,4.6,0.1,9-1.7,13.2
		c-2.6,6.2-5.9,11.9-9.7,17.4c-3.3,4.8-6.8,9.5-10.2,14.2c-1,1.4-2.6,1.4-3.7,0.1c-6.2-8-12-16.2-16.9-25.1c-2-3.7-3.8-7.5-4.7-11.6
		C1212.3,320.8,1212.1,319.4,1211.9,318.1z M1236,307.5c-4.8,0-8.7,3.9-8.7,8.7c0,4.8,3.9,8.7,8.7,8.7c4.8,0,8.7-3.9,8.7-8.7
		C1244.6,311.4,1240.8,307.5,1236,307.5z"/>
</g>
<g>
	<path class="st2" d="M1086.5,149.1c0.3-11.3,8.3-21,19.4-23.2c12.9-2.6,25.6,5.9,28.1,18.8c0.9,4.6,0.1,9-1.7,13.2
		c-2.6,6.2-5.9,11.9-9.7,17.4c-3.3,4.8-6.8,9.5-10.2,14.2c-1,1.4-2.6,1.4-3.7,0.1c-6.2-8-12-16.2-16.9-25.1c-2-3.7-3.8-7.5-4.7-11.6
		C1086.8,151.8,1086.7,150.4,1086.5,149.1z M1110.5,138.5c-4.8,0-8.7,3.9-8.7,8.7s3.9,8.7,8.7,8.7c4.8,0,8.7-3.9,8.7-8.7
		S1115.3,138.5,1110.5,138.5z"/>
</g>
<g>
	<path class="st2" d="M1378.3-269.5c0.3,0,0.7,0,1,0c0.2,0,0.4,0.1,0.5,0.1c0.9,0.2,1.6,0.6,2.3,1.2c0.6,0.5,1.1,1,1.6,1.5
		c2.9,2.9,5.8,5.8,8.8,8.7c0.1,0.1,0.2,0.2,0.3,0.3c0-0.2,0-0.3,0-0.4c0-0.7,0-1.4,0-2.2c0-2.6,2.1-4.6,4.7-4.7c1.6,0,3.1,0,4.7,0
		c1.8,0,3.2,0.9,4.1,2.4c0.4,0.7,0.6,1.5,0.6,2.3c0,5.3,0,10.7,0,16c0,0.3,0.1,0.5,0.3,0.8c2.1,2.1,4.2,4.2,6.3,6.3
		c0.6,0.6,1.2,1.2,1.7,1.9c0.5,0.6,0.9,1.4,1,2.2c0,0.1,0,0.1,0.1,0.2c0,0.3,0,0.7,0,1c0,0.1-0.1,0.1-0.1,0.2
		c-0.1,0.8-0.4,1.5-0.9,2.2c-0.9,1.2-2.2,1.8-3.7,1.8c-1.4,0-2.8,0-4.3,0c-0.1,0-0.3,0-0.4,0c0,0.2,0,0.4,0,0.5c0,9,0,18,0,27
		c0,0.2,0,0.4,0,0.6c0,0.6-0.1,1.1-0.4,1.7c-0.8,1.8-2.3,2.8-4.3,2.9c-0.8,0-1.6,0-2.4,0c-3.7,0-7.5,0-11.2,0c-0.1,0-0.3,0-0.4,0
		c0-0.2,0-0.3,0-0.5c0-2.8,0-5.6,0-8.4c0-4.8,0-9.7,0-14.5c0-2.6-2.1-4.7-4.7-4.7c-3.1,0-6.2,0-9.3,0c-2,0-3.4,1-4.3,2.8
		c-0.3,0.6-0.4,1.3-0.4,2.1c0,7.6,0,15.1,0,22.7c0,0.2,0,0.3,0,0.5c-0.2,0-0.3,0-0.5,0c-3.9,0-7.7,0-11.6,0c-0.7,0-1.3,0-2,0
		c-1.5,0-2.7-0.6-3.6-1.8c-0.7-0.9-1-2-1-3.1c0-9.1,0-18.1,0-27.2c0-0.1,0-0.2,0-0.4c0-0.1,0-0.2,0-0.3c-0.2,0-0.3,0-0.4,0
		c-1.4,0-2.8,0-4.2,0c-0.6,0-1.1-0.1-1.7-0.3c-1.9-0.7-3-2.4-3-4.5c0-1.1,0.4-2.1,1.1-3c0.5-0.6,1-1.1,1.5-1.7
		c10-10,20-20,29.9-29.9c0.5-0.5,1.1-1.1,1.7-1.6s1.3-0.9,2.1-1C1378-269.4,1378.1-269.5,1378.3-269.5z"/>
</g>
<g>
	<path class="st1" d="M1153.1-43.9c0.5,0,1.1,0,1.6,0c0.3,0.1,0.6,0.1,0.8,0.2c1.4,0.3,2.6,1,3.6,1.9c0.9,0.8,1.8,1.6,2.6,2.4
		c4.7,4.7,9.3,9.3,14,14c0.1,0.1,0.3,0.3,0.5,0.5c0-0.3,0-0.5,0-0.6c0-1.1,0-2.3,0-3.4c0.1-4.1,3.4-7.4,7.5-7.4c2.5,0,5,0,7.5,0
		c2.9,0.1,5.1,1.4,6.5,3.9c0.7,1.2,0.9,2.4,0.9,3.8c0,8.5,0,17.1,0,25.6c0,0.5,0.2,0.9,0.5,1.2c3.4,3.3,6.7,6.7,10.1,10.1
		c1,1,1.9,2,2.7,3c0.8,1,1.4,2.2,1.5,3.6c0,0.1,0.1,0.2,0.1,0.3c0,0.5,0,1.1,0,1.6c0,0.1-0.1,0.2-0.1,0.3c-0.1,1.3-0.6,2.4-1.4,3.5
		c-1.5,1.9-3.5,2.8-5.9,2.9c-2.3,0-4.6,0-6.8,0c-0.2,0-0.4,0-0.7,0c0,0.3,0,0.6,0,0.8c0,14.4,0,28.8,0,43.3c0,0.3,0,0.6,0,0.9
		c0,0.9-0.2,1.8-0.6,2.7c-1.3,2.9-3.6,4.5-6.8,4.6c-1.3,0.1-2.6,0-3.9,0c-6,0-11.9,0-17.9,0c-0.2,0-0.4,0-0.7,0c0-0.3,0-0.5,0-0.8
		c0-4.5,0-9,0-13.4c0-7.7,0-15.5,0-23.2c0-4.2-3.3-7.4-7.5-7.5c-5,0-10,0-14.9,0c-3.2,0-5.5,1.6-6.9,4.5c-0.5,1-0.6,2.2-0.6,3.3
		c0,12.1,0,24.2,0,36.3c0,0.2,0,0.5,0,0.8c-0.3,0-0.5,0-0.8,0c-6.2,0-12.3,0-18.5,0c-1.1,0-2.1,0-3.2,0c-2.3-0.1-4.3-1-5.8-2.8
		c-1.2-1.4-1.7-3.1-1.7-5c0-14.5,0-29,0-43.6c0-0.2,0-0.4,0-0.6c0-0.1,0-0.3-0.1-0.4c-0.2,0-0.5,0-0.7,0c-2.2,0-4.5,0-6.7,0
		c-0.9,0-1.8-0.1-2.7-0.5c-3-1.1-4.8-3.8-4.8-7.2c0-1.8,0.7-3.4,1.8-4.8c0.8-0.9,1.6-1.8,2.4-2.7c16-16,31.9-31.9,47.9-47.9
		c0.9-0.9,1.8-1.7,2.7-2.5c1-0.8,2.1-1.4,3.3-1.7C1152.5-43.7,1152.8-43.8,1153.1-43.9z"/>
</g>
<g>
	<path class="st1" d="M2089.6-265.7c-40.6,0-73.4-32.9-73.3-73.6c0.1-40.2,33-73,73.3-73c41.3,0,73.7,33.9,73.4,74.1
		C2162.7-298.4,2129.8-265.7,2089.6-265.7z M2089.8-407.7c-37.9,0-68.7,30.7-68.7,68.7c0,38.1,30.7,68.7,69.1,68.7
		c37,0,67.9-30.9,68.2-67.9C2158.6-376,2128.5-407.5,2089.8-407.7z"/>
	<path class="st1" d="M2089.7-400.4c33.9,0,61.3,27.5,61.3,61.5s-27.5,61.3-61.7,61.3c-33.6,0-61.1-27.7-61-61.5
		C2028.4-373,2055.9-400.4,2089.7-400.4z M2089.8-395.8c-31.1-0.2-56.6,25.2-56.8,56.6c-0.2,31.2,25.1,56.7,56.4,56.9
		c31.1,0.2,56.7-25.1,56.9-56.1C2146.6-370,2121.4-395.6,2089.8-395.8z"/>
	
		<text transform="matrix(1 0 0 1 2037.7197 -310.9454)" class="st1" style="font-family:'Bull-5-Trial-Regular'; font-size:81.9385px; letter-spacing:-6;">BB</text>
</g>
<g>
	<path class="st2" d="M1785.3-211.9c-40.6,0-73.4-32.9-73.3-73.6c0.1-40.2,33-73,73.3-73c41.3,0,73.7,33.9,73.4,74.1
		C1858.4-244.6,1825.5-211.9,1785.3-211.9z M1785.5-353.9c-37.9,0-68.7,30.7-68.7,68.7c0,38.1,30.7,68.7,69.1,68.7
		c37,0,67.9-30.9,68.2-67.9C1854.3-322.2,1824.2-353.7,1785.5-353.9z"/>
	<path class="st2" d="M1785.4-346.6c33.9,0,61.3,27.5,61.3,61.5s-27.5,61.3-61.7,61.3c-33.6,0-61.1-27.7-61-61.5
		C1724.1-319.2,1751.6-346.6,1785.4-346.6z M1785.5-342c-31.1-0.2-56.6,25.2-56.8,56.6c-0.2,31.2,25.1,56.7,56.4,56.9
		c31.1,0.2,56.7-25.1,56.9-56.1C1842.3-316.2,1817.1-341.7,1785.5-342z"/>
	
		<text transform="matrix(1 0 0 1 1742.8354 -262.2964)" class="st2" style="font-family:'Bull-5-Trial-Regular'; font-size:64.4616px; letter-spacing:-4;">BB</text>
</g>
<g>
	<circle class="st3" cx="1718.5" cy="-398.7" r="52.8"/>
	
		<text transform="matrix(1 0 0 1 1684.4602 -380.0408)" class="st2" style="font-family:'Bull-5-Trial-Regular'; font-size:52.1358px; letter-spacing:-3;">BB</text>
</g>
<g>
	<path d="M1294.8,370.7c0.3-11.3,8.3-21,19.4-23.2c12.9-2.6,25.6,5.9,28.1,18.8c0.9,4.6,0.1,9-1.7,13.2c-2.6,6.2-5.9,11.9-9.7,17.4
		c-3.3,4.8-6.8,9.5-10.2,14.2c-1,1.4-2.6,1.4-3.7,0.1c-6.2-8-12-16.2-16.9-25.1c-2-3.7-3.8-7.5-4.7-11.6
		C1295.1,373.3,1295,372,1294.8,370.7z M1318.8,360.1c-4.8,0-8.7,3.9-8.7,8.7c0,4.8,3.9,8.7,8.7,8.7c4.8,0,8.7-3.9,8.7-8.7
		S1323.6,360.1,1318.8,360.1z"/>
</g>
</svg>
